<svg xmlns="http://www.w3.org/2000/svg" xmlns:xlink="http://www.w3.org/1999/xlink"><defs><symbol viewBox="0 0 256 512" id="angle-down"><path d="M119.5 326.9L3.5 209.1c-4.7-4.7-4.7-12.3 0-17l7.1-7.1c4.7-4.7 12.3-4.7 17 0L128 287.3l100.4-102.2c4.7-4.7 12.3-4.7 17 0l7.1 7.1c4.7 4.7 4.7 12.3 0 17L136.5 327c-4.7 4.6-12.3 4.6-17-.1z" /></symbol><symbol viewBox="0 0 512 512" id="briefcase"><path d="M464 128H352V56c0-13.26-10.74-24-24-24H184c-13.26 0-24 10.74-24 24v72H48c-26.51 0-48 21.49-48 48v256c0 26.51 21.49 48 48 48h416c26.51 0 48-21.49 48-48V176c0-26.51-21.49-48-48-48zM192 64h128v64H192V64zm288 368c0 8.82-7.18 16-16 16H48c-8.82 0-16-7.18-16-16V288h160v40c0 13.25 10.75 24 24 24h80c13.25 0 24-10.75 24-24v-40h160v144zM224 320v-32h64v32h-64zm256-64H32v-80c0-8.82 7.18-16 16-16h416c8.82 0 16 7.18 16 16v80z" /></symbol><symbol viewBox="0 0 9.7 6.8" id="check">
    <polyline points="0.2,3.3 3.2,6.4 9.4,0.2 " />
</symbol><symbol viewBox="0 0 576 512" id="edit"><path d="M417.8 315.5l20-20c3.8-3.8 10.2-1.1 10.2 4.2V464c0 26.5-21.5 48-48 48H48c-26.5 0-48-21.5-48-48V112c0-26.5 21.5-48 48-48h292.3c5.3 0 8 6.5 4.2 10.2l-20 20c-1.1 1.1-2.7 1.8-4.2 1.8H48c-8.8 0-16 7.2-16 16v352c0 8.8 7.2 16 16 16h352c8.8 0 16-7.2 16-16V319.7c0-1.6.6-3.1 1.8-4.2zm145.9-191.2L251.2 436.8l-99.9 11.1c-13.4 1.5-24.7-9.8-23.2-23.2l11.1-99.9L451.7 12.3c16.4-16.4 43-16.4 59.4 0l52.6 52.6c16.4 16.4 16.4 43 0 59.4zm-93.6 48.4L403.4 106 169.8 339.5l-8.3 75.1 75.1-8.3 233.5-233.6zm71-85.2l-52.6-52.6c-3.8-3.8-10.2-4-14.1 0L426 83.3l66.7 66.7 48.4-48.4c3.9-3.8 3.9-10.2 0-14.1z" /></symbol><symbol viewBox="0 0 512 512" id="pen"><path d="M493.25 56.26l-37.51-37.51C443.25 6.25 426.87 0 410.49 0s-32.76 6.25-45.26 18.74L12.85 371.12.15 485.34C-1.45 499.72 9.88 512 23.95 512c.89 0 1.78-.05 2.69-.15l114.14-12.61 352.48-352.48c24.99-24.99 24.99-65.51-.01-90.5zM126.09 468.68l-93.03 10.31 10.36-93.17 263.89-263.89 82.77 82.77-263.99 263.98zm344.54-344.54l-57.93 57.93-82.77-82.77 57.93-57.93c6.04-6.04 14.08-9.37 22.63-9.37 8.55 0 16.58 3.33 22.63 9.37l37.51 37.51c12.47 12.48 12.47 32.78 0 45.26z" /></symbol><symbol viewBox="0 0 16 16" id="search">
<path d="M10.9167 9.66667H10.2583L10.025 9.44167C10.8417 8.49167 11.3333 7.25833 11.3333 5.91667C11.3333 2.925 8.90833 0.5 5.91667 0.5C2.925 0.5 0.5 2.925 0.5 5.91667C0.5 8.90833 2.925 11.3333 5.91667 11.3333C7.25833 11.3333 8.49167 10.8417 9.44167 10.025L9.66667 10.2583V10.9167L13.8333 15.075L15.075 13.8333L10.9167 9.66667ZM5.91667 9.66667C3.84167 9.66667 2.16667 7.99167 2.16667 5.91667C2.16667 3.84167 3.84167 2.16667 5.91667 2.16667C7.99167 2.16667 9.66667 3.84167 9.66667 5.91667C9.66667 7.99167 7.99167 9.66667 5.91667 9.66667Z" />
</symbol><symbol viewBox="0 0 512 512" id="ski-jump"><path d="M510.8 191.5c-1.5-8.7-10.1-14.5-18.4-13.1-8.7 1.5-14.6 9.7-13.1 18.5 3.8 22.6-7 45.5-26.3 56.5L201.1 382.9 247.9 269l116.7-90.8c12.5-9.7 21.5-29.3 18.4-50.3 36 .7 65-28.5 65-63.9 0-35.3-28.7-64-64-64s-64 28.7-64 64c0 5.6.9 10.9 2.3 16H160c-26.5 0-48 21.5-48 48s21.5 48 48 48h39.8c-33.7 36.9-37.7 45.5-63.7 111-7.2 18.1-16.3 40.9-28.5 70.7-4.9 11.8-4.9 24.9.1 36.7 4.5 10.9 13 19.2 23.6 24.3l-122.6 63c-7.9 4-11 13.7-6.9 21.5 2.8 5.5 8.4 8.7 14.2 8.7 2.5 0 5-.6 7.3-1.8l444.9-228.8c31.5-17.8 48.7-54 42.6-89.8zM384 32c17.7 0 32 14.4 32 32s-14.3 32-32 32-32-14.4-32-32 14.4-32 32-32zM137.2 369.9c70-170.2 36.9-116 135.2-225.9H160c-8.8 0-16-7.2-16-16s7.2-16 16-16h168c21.4 0 32.1 25.9 17 41l-121.9 94.8c-.8.8-2.2 2.8-3.1 5l-53.3 129.3c-3.3 8.1-12.5 12.1-20.9 8.7-8-3.4-11.9-12.7-8.6-20.9z" /></symbol><symbol viewBox="0 0 448 512" id="trash-alt"><path d="M296 432h16a8 8 0 0 0 8-8V152a8 8 0 0 0-8-8h-16a8 8 0 0 0-8 8v272a8 8 0 0 0 8 8zm-160 0h16a8 8 0 0 0 8-8V152a8 8 0 0 0-8-8h-16a8 8 0 0 0-8 8v272a8 8 0 0 0 8 8zM440 64H336l-33.6-44.8A48 48 0 0 0 264 0h-80a48 48 0 0 0-38.4 19.2L112 64H8a8 8 0 0 0-8 8v16a8 8 0 0 0 8 8h24v368a48 48 0 0 0 48 48h288a48 48 0 0 0 48-48V96h24a8 8 0 0 0 8-8V72a8 8 0 0 0-8-8zM171.2 38.4A16.1 16.1 0 0 1 184 32h80a16.1 16.1 0 0 1 12.8 6.4L296 64H152zM384 464a16 16 0 0 1-16 16H80a16 16 0 0 1-16-16V96h320zm-168-32h16a8 8 0 0 0 8-8V152a8 8 0 0 0-8-8h-16a8 8 0 0 0-8 8v272a8 8 0 0 0 8 8z" /></symbol><symbol viewBox="0 0 448 512" id="user"><path d="M313.6 288c-28.7 0-42.5 16-89.6 16-47.1 0-60.8-16-89.6-16C60.2 288 0 348.2 0 422.4V464c0 26.5 21.5 48 48 48h352c26.5 0 48-21.5 48-48v-41.6c0-74.2-60.2-134.4-134.4-134.4zM416 464c0 8.8-7.2 16-16 16H48c-8.8 0-16-7.2-16-16v-41.6C32 365.9 77.9 320 134.4 320c19.6 0 39.1 16 89.6 16 50.4 0 70-16 89.6-16 56.5 0 102.4 45.9 102.4 102.4V464zM224 256c70.7 0 128-57.3 128-128S294.7 0 224 0 96 57.3 96 128s57.3 128 128 128zm0-224c52.9 0 96 43.1 96 96s-43.1 96-96 96-96-43.1-96-96 43.1-96 96-96z" /></symbol></defs></svg>